<svg width="24" height="24" viewBox="0 0 24 24" fill="none" xmlns="http://www.w3.org/2000/svg">
    <path fill-rule="evenodd" clip-rule="evenodd"
          d="M1 12C1 5.92489 5.92489 1 12 1C18.0751 1 23 5.92489 23 12C23 18.0751 18.0751 23 12 23C5.92489 23 1 18.0751 1 12ZM12 2.78378C6.91005 2.78378 2.78378 6.91005 2.78378 12C2.78378 17.09 6.91005 21.2162 12 21.2162C17.09 21.2162 21.2162 17.09 21.2162 12C21.2162 6.91005 17.09 2.78378 12 2.78378Z"
          fill="#EAEAEA"/>
    <path fill-rule="evenodd" clip-rule="evenodd"
          d="M6.93915 17.0001C6.64625 16.7072 6.64625 16.2323 6.93915 15.9394L15.6588 7.21972C15.9517 6.92683 16.4266 6.92683 16.7195 7.21972C17.0124 7.51262 17.0124 7.98749 16.7195 8.28038L7.99981 17.0001C7.70691 17.2929 7.23204 17.2929 6.93915 17.0001Z"
          fill="#EAEAEA"/>
    <path fill-rule="evenodd" clip-rule="evenodd"
          d="M6.93934 7.21948C7.23223 6.92659 7.70711 6.92659 8 7.21948L16.7197 15.9392C17.0126 16.232 17.0126 16.7069 16.7197 16.9998C16.4268 17.2927 15.9519 17.2927 15.659 16.9998L6.93934 8.28014C6.64645 7.98725 6.64645 7.51238 6.93934 7.21948Z"
          fill="#EAEAEA"/>
</svg>
