<svg width="22" height="22" viewBox="0 0 22 22" fill="none" xmlns="http://www.w3.org/2000/svg">
<path d="M18.0711 18.0711L18.4246 18.4247L18.4247 18.4247L18.0711 18.0711ZM18.0711 3.92894L18.4247 3.57539L18.4246 3.57538L18.0711 3.92894ZM3.92894 3.92894L3.57538 3.57538L3.57538 3.57538L3.92894 3.92894ZM3.92894 18.0711L3.57538 18.4247L3.57539 18.4247L3.92894 18.0711ZM6.35355 5.64645C6.15829 5.45118 5.84171 5.45118 5.64645 5.64645C5.45118 5.84171 5.45118 6.15829 5.64645 6.35355L6.35355 5.64645ZM15.6464 16.3536C15.8417 16.5488 16.1583 16.5488 16.3536 16.3536C16.5488 16.1583 16.5488 15.8417 16.3536 15.6464L15.6464 16.3536ZM16.3536 6.35355C16.5488 6.15829 16.5488 5.84171 16.3536 5.64645C16.1583 5.45118 15.8417 5.45118 15.6464 5.64645L16.3536 6.35355ZM5.64645 15.6464C5.45118 15.8417 5.45118 16.1583 5.64645 16.3536C5.84171 16.5488 6.15829 16.5488 6.35355 16.3536L5.64645 15.6464ZM11 21.5C13.8994 21.5 16.5251 20.3241 18.4246 18.4247L17.7175 17.7175C15.9978 19.4372 13.6235 20.5 11 20.5V21.5ZM18.4247 18.4247C20.3241 16.5251 21.5 13.8994 21.5 11H20.5C20.5 13.6235 19.4372 15.9978 17.7175 17.7176L18.4247 18.4247ZM21.5 11C21.5 8.10066 20.3241 5.47498 18.4247 3.57539L17.7175 4.28248C19.4372 6.00222 20.5 8.37654 20.5 11H21.5ZM18.4246 3.57538C16.5251 1.6758 13.8994 0.5 11 0.5V1.5C13.6235 1.5 15.9978 2.56278 17.7175 4.28249L18.4246 3.57538ZM11 0.5C8.10066 0.5 5.47498 1.6758 3.57538 3.57538L4.28249 4.28249C6.00222 2.56278 8.37653 1.5 11 1.5V0.5ZM3.57538 3.57538C1.6758 5.47498 0.5 8.10067 0.5 11H1.5C1.5 8.37653 2.56278 6.00222 4.28249 4.28249L3.57538 3.57538ZM0.5 11C0.5 13.8994 1.6758 16.5251 3.57538 18.4247L4.28249 17.7176C2.56278 15.9978 1.5 13.6235 1.5 11H0.5ZM3.57539 18.4247C5.47498 20.3241 8.10065 21.5 11 21.5V20.5C8.37654 20.5 6.00222 19.4372 4.28248 17.7175L3.57539 18.4247ZM5.64645 6.35355L15.6464 16.3536L16.3536 15.6464L6.35355 5.64645L5.64645 6.35355ZM15.6464 5.64645L5.64645 15.6464L6.35355 16.3536L16.3536 6.35355L15.6464 5.64645Z" fill="#EAEAEA"/>
</svg>
